<?xml version="1.0" encoding="UTF-8" standalone="no"?>
<!-- Generator: Adobe Illustrator 16.0.4, SVG Export Plug-In . SVG Version: 6.00 Build 0)  -->
<!DOCTYPE svg  PUBLIC '-//W3C//DTD SVG 1.1//EN'  'http://www.w3.org/Graphics/SVG/1.1/DTD/svg11.dtd'>
<svg id="Objects" xmlns="http://www.w3.org/2000/svg" xml:space="preserve" height="800px" viewBox="0 0 800 800" width="800px" version="1.1" y="0px" x="0px" xmlns:xlink="http://www.w3.org/1999/xlink" enable-background="new 0 0 800 800">
	<rect y="2" x="2" height="796" width="796" fill="#fff"/>
	<path d="m796 4v792h-792v-792h792m4-4h-800v800h800v-800z" fill="#F2F2F2"/>
<rect y="25" x="25" height="750" width="750" fill="#F6F7F1"/>
<path d="m400 114.51v351.17c55.252 0 106.65 171.04 149.38 142.49 72.217-48.263 119.74-131.17 119.74-224.55 0-148.62-120.49-269.11-269.12-269.11z" fill="#DAD8C5"/>
<path d="m400.19 114.64v351.17c-55.252 0-106.65 171.04-149.38 142.49-72.217-48.263-119.74-131.17-119.74-224.55 0-148.63 120.49-269.11 269.12-269.11z" fill="#E6E5D7"/>
<path d="m529.72 452.71c-13.327-38.2-25.692-63.949-34.521-91.445 14.505-18.689 23.087-41.82 23.087-66.866 0-38.479-20.25-72.437-51.127-92.708-4.099-6.891-16.228-13.63-30.156-16.878-9.576-2.233-24.409-4.124-31.847-2.76-1.544-0.057-3.094-0.095-4.653-0.095-65.052 0-117.78 50.34-117.78 112.44 0 24.021 7.895 46.277 21.335 64.546-8.869 28.38-21.556 54.493-35.256 93.764-8.366 23.987-8.231 45.326-4.399 63.066l270.29-2.813c3.25-17.16 2.96-37.51-4.97-60.24z" fill="#452D21"/>
<path d="m439.9 487.08v-57.252h-78.812v59.414c9.44 18.31 38.91 24.03 38.91 24.03s31.77-6.17 39.9-26.19z" fill="#DAD8C5"/>
<path d="m387.14 272.72c-20.233 10.567-31.563 5.133-53.346 14.608-10.447 4.547-17.831 14.234-22.333 27.677-0.002 0.003-0.002 0.007-0.003 0.01-0.234 0.7-0.46 1.41-0.679 2.13-0.025 0.084-0.051 0.168-0.075 0.252-0.201 0.667-0.395 1.341-0.581 2.025-0.022 0.083-0.046 0.164-0.067 0.246-0.416 1.537-0.8 3.112-1.148 4.731-0.004 0.016-0.007 0.032-0.011 0.048-0.16 0.744-0.312 1.497-0.458 2.257-0.038 0.205-0.077 0.411-0.114 0.617-0.108 0.583-0.214 1.17-0.313 1.762-0.044 0.256-0.088 0.512-0.13 0.769-0.094 0.578-0.182 1.16-0.269 1.746-0.036 0.245-0.074 0.488-0.108 0.733-0.116 0.821-0.227 1.647-0.328 2.485-0.577-0.777-1.132-1.563-1.675-2.354-0.173-0.252-0.341-0.508-0.512-0.762-0.368-0.551-0.73-1.105-1.083-1.663-0.18-0.283-0.358-0.566-0.533-0.85-0.368-0.599-0.726-1.201-1.077-1.806-0.122-0.209-0.248-0.418-0.367-0.628-2.527-4.453-4.572-9.037-6.188-13.612-8.873 4.136-14.526 16.881-13.062 31.014 1.664 16.041 11.875 27.866 22.945 26.739 6.918 31.046 21.179 47.617 27.392 55.179 7.696 9.358 48.188 39.61 68.479 39.61v-177.66c-5.14-4.63-10.57-10.4-14.35-15.31z" fill="#ECECE1"/>
<path d="m503.45 312.44c0.111 1.4 0.231 2.816 0.369 4.263-2.106 0.141-4.169 0.239-6.213 0.318-1.102 0.043-2.197 0.081-3.28 0.106-0.424 0.01-0.844 0.015-1.265 0.022-0.986 0.017-1.969 0.029-2.941 0.033-0.474 0.001-0.943-0.001-1.414-0.004-42.182-0.163-70.104-13.651-88.515-30.322v178.83c20.292 0 59.783-30.252 67.479-39.61 6.215-7.563 20.483-24.144 27.398-55.21 11.184 1.381 21.572-10.518 23.249-26.708 1.55-15.07-4.98-28.56-14.88-31.72z" fill="#E6E5D7"/>
<path d="m400 689.33v-176.06s-33.079-6.422-40.372-27.423c-3.503-10.091-3.404-9.006-3.404-9.006s-72.331 9.96-88.477 29.733c-13.438 31.342-17.123 101.6-17.123 101.6l149.37 81.16z" fill="#A81921"/>
<path d="m400.5 438.29c13.841 0 25.062-7.521 25.062-16.795h-50.124c0 9.27 11.22 16.79 25.06 16.79z" fill="#fff"/>
<path d="m669.12 383.63c0-148.63-120.49-269.12-269.12-269.12s-269.12 120.49-269.12 269.12" fill="none"/>
<path d="m400 689.33v-176.06s33.078-6.422 40.373-27.423c3.502-10.091 3.401-9.006 3.401-9.006s72.334 9.96 88.479 29.733c13.438 31.342 17.122 101.6 17.122 101.6l-149.37 81.16z" fill="#891218"/>
</svg>
